<svg xmlns="http://www.w3.org/2000/svg" width="81.187" height="81.742"><g><path d="M42.306 4.019h-.131a38.863 38.863 0 00.019 77.725h.131a38.862 38.862 0 10-.019-77.723zM75.97 40.265h-14.5a73.576 73.576 0 00-1.831-14.237 56.917 56.917 0 009.291-3.924 33.472 33.472 0 017.04 18.161zm-36.283 0H28.144a66.409 66.409 0 011.644-12.91 56.842 56.842 0 009.9 1.327zm0 5.231v11.565a57.083 57.083 0 00-9.9 1.327 66.4 66.4 0 01-1.644-12.892zm5.231 0H56.37a66.019 66.019 0 01-1.644 12.873 55.768 55.768 0 00-9.809-1.308zm0-5.231V28.681a57.084 57.084 0 009.809-1.308 66.214 66.214 0 011.643 12.892zm20.44-22.028a51.9 51.9 0 01-7.1 2.9 38.577 38.577 0 00-4.951-10.182 33.809 33.809 0 0112.055 7.282zM53.33 22.478a52.581 52.581 0 01-8.408 1.121V9.886c3.176 1.718 6.278 6.333 8.408 12.592zM39.691 9.811v13.77a51.674 51.674 0 01-8.5-1.14c2.166-6.315 5.305-10.93 8.5-12.63zm-8.52 1.2a38.881 38.881 0 00-4.914 10.103 53.071 53.071 0 01-7.006-2.877 33.3 33.3 0 0111.919-7.23zM15.683 22.123a55.789 55.789 0 009.187 3.886 70.611 70.611 0 00-1.826 14.235H8.658a33.3 33.3 0 017.025-18.121zM8.639 45.496h14.386a73.387 73.387 0 001.831 14.237 59.193 59.193 0 00-9.192 3.886 33.477 33.477 0 01-7.025-18.123zm10.593 22.028a52.289 52.289 0 017.025-2.88 39.019 39.019 0 004.913 10.129 34.131 34.131 0 01-11.938-7.249zm11.958-4.223a51.945 51.945 0 018.5-1.14V75.95c-3.213-1.7-6.333-6.334-8.5-12.649zm13.732 12.574V62.144a52.582 52.582 0 018.408 1.12c-2.13 6.28-5.232 10.892-8.408 12.611zm8.408-1.065a38.576 38.576 0 004.951-10.182 51.048 51.048 0 017.1 2.915A34.2 34.2 0 0153.33 74.81zm15.6-11.173a56.916 56.916 0 00-9.286-3.924 73.193 73.193 0 001.831-14.218H75.97a33.326 33.326 0 01-7.04 18.143z" fill="#00ced1"/><path d="M38.861 0h-.131a38.863 38.863 0 00.019 77.725h.131A38.862 38.862 0 1038.861.002zm33.664 36.246h-14.5a73.576 73.576 0 00-1.831-14.237 56.917 56.917 0 009.291-3.924 33.472 33.472 0 017.04 18.161zm-36.283 0H24.699a66.409 66.409 0 011.644-12.91 56.842 56.842 0 009.9 1.327zm0 5.231v11.565a57.083 57.083 0 00-9.9 1.327 66.4 66.4 0 01-1.644-12.892zm5.231 0h11.452a66.019 66.019 0 01-1.644 12.873 55.768 55.768 0 00-9.809-1.308zm0-5.231V24.662a57.084 57.084 0 009.809-1.308 66.214 66.214 0 011.643 12.892zm20.44-22.028a51.9 51.9 0 01-7.1 2.9 38.577 38.577 0 00-4.951-10.182 33.809 33.809 0 0112.055 7.282zm-12.028 4.241a52.581 52.581 0 01-8.408 1.121V5.867c3.176 1.718 6.278 6.333 8.408 12.592zM36.246 5.792v13.77a51.674 51.674 0 01-8.5-1.14c2.166-6.315 5.305-10.93 8.5-12.63zm-8.52 1.2a38.881 38.881 0 00-4.914 10.103 53.071 53.071 0 01-7.006-2.877 33.3 33.3 0 0111.919-7.23zM12.238 18.104a55.789 55.789 0 009.187 3.886 70.611 70.611 0 00-1.826 14.235H5.213a33.3 33.3 0 017.025-18.121zM5.194 41.477H19.58a73.387 73.387 0 001.831 14.237 59.193 59.193 0 00-9.192 3.886 33.477 33.477 0 01-7.025-18.123zm10.593 22.028a52.289 52.289 0 017.025-2.88 39.019 39.019 0 004.913 10.129 34.131 34.131 0 01-11.938-7.249zm11.958-4.223a51.945 51.945 0 018.5-1.14v13.789c-3.213-1.7-6.333-6.334-8.5-12.649zm13.732 12.574V58.125a52.582 52.582 0 018.408 1.12c-2.13 6.28-5.232 10.892-8.408 12.611zm8.408-1.065a38.576 38.576 0 004.951-10.182 51.048 51.048 0 017.1 2.915 34.2 34.2 0 01-12.051 7.267zm15.6-11.173a56.916 56.916 0 00-9.286-3.924 73.193 73.193 0 001.831-14.218h14.495a33.326 33.326 0 01-7.04 18.143z" fill="#535353"/></g></svg>