<svg xmlns="http://www.w3.org/2000/svg" width="60" height="40"><g fill="#00ced1"><path d="M59.51 4.964l-15.52 15.2a.261.261 0 000 .388l10.861 11.112a1.751 1.751 0 010 2.551 1.934 1.934 0 01-2.654 0L41.38 23.14a.3.3 0 00-.418 0l-2.637 2.579a11.848 11.848 0 01-8.279 3.355 12.083 12.083 0 01-8.452-3.452l-2.538-2.482a.3.3 0 00-.418 0L7.817 34.218a1.934 1.934 0 01-2.654 0 1.751 1.751 0 010-2.551l10.862-11.12a.287.287 0 000-.388L.49 4.964a.286.286 0 00-.49.194v30.406A4.542 4.542 0 004.615 40h50.77A4.542 4.542 0 0060 35.564V5.157a.29.29 0 00-.49-.193z"/><path d="M30 25.748a7.961 7.961 0 005.648-2.306L58.313.984A4.617 4.617 0 0055.453 0H4.562a4.587 4.587 0 00-2.86.984l22.664 22.458A7.961 7.961 0 0030 25.748z"/></g></svg>