<svg xmlns="http://www.w3.org/2000/svg" width="70.545" height="70.69"><g><path d="M69.126 55.507L53.845 40.226a9.689 9.689 0 00-11.144-1.814L28.79 24.501v-8.1L12.087 3.87l-8.355 8.352 12.527 16.7h8.1l13.918 13.914a9.71 9.71 0 001.814 11.144l15.281 15.281a4.852 4.852 0 006.877 0l6.877-6.877a4.875 4.875 0 000-6.877zM47.02 33.231a13.73 13.73 0 019.774 4.045l2.532 2.532a18.471 18.471 0 005.716-3.85 18.767 18.767 0 004.945-17.838 1.562 1.562 0 00-2.623-.718l-9.709 9.709-8.861-1.475-1.475-8.861 9.713-9.705a1.575 1.575 0 00-.747-2.639A18.8 18.8 0 0038.46 9.377a18.493 18.493 0 00-5.376 13.519L43.797 33.61a14.216 14.216 0 013.223-.379zM33.462 43.932l-7.4-7.4L6.175 56.433a8.351 8.351 0 0011.81 11.81l16.129-16.129a14.013 14.013 0 01-.652-8.182zM12.087 65.463a3.132 3.132 0 113.132-3.132 3.141 3.141 0 01-3.132 3.132z" fill="#00ced1"/><path d="M65.398 51.637L50.117 36.356a9.689 9.689 0 00-11.144-1.814L25.062 20.631v-8.1L8.359 0 .004 8.352l12.527 16.7h8.1l13.918 13.914a9.71 9.71 0 001.814 11.144l15.281 15.281a4.852 4.852 0 006.877 0l6.877-6.877a4.875 4.875 0 000-6.877zM43.292 29.361a13.73 13.73 0 019.774 4.045l2.532 2.532a18.471 18.471 0 005.716-3.85 18.767 18.767 0 004.945-17.838 1.562 1.562 0 00-2.623-.718l-9.709 9.709-8.861-1.475-1.475-8.861L53.304 3.2a1.575 1.575 0 00-.747-2.639 18.8 18.8 0 00-17.825 4.946 18.493 18.493 0 00-5.376 13.519L40.069 29.74a14.216 14.216 0 013.223-.379zM29.734 40.062l-7.4-7.4L2.447 52.563a8.351 8.351 0 0011.81 11.81l16.129-16.129a14.013 14.013 0 01-.652-8.182zM8.359 61.593a3.132 3.132 0 113.132-3.132 3.141 3.141 0 01-3.132 3.132z" fill="#535353"/></g></svg>