<svg xmlns="http://www.w3.org/2000/svg" width="25.168" height="17.424"><g fill="#cf0"><path d="M24.963 2.136l-6.51 6.631a.117.117 0 000 .169l4.555 4.849a.785.785 0 010 1.113.789.789 0 01-1.113 0l-4.538-4.834a.124.124 0 00-.175 0l-1.107 1.129a4.871 4.871 0 01-3.473 1.464 4.969 4.969 0 01-3.545-1.506l-1.065-1.083a.124.124 0 00-.175 0l-4.538 4.834a.789.789 0 01-1.113 0 .785.785 0 010-1.113l4.559-4.853a.129.129 0 000-.169L.206 2.136A.119.119 0 000 2.221v13.264a1.942 1.942 0 001.936 1.94h21.3a1.942 1.942 0 001.932-1.94V2.221a.121.121 0 00-.205-.085z"/><path d="M12.584 11.078a3.289 3.289 0 002.366-.992L24.442.425a1.9 1.9 0 00-1.2-.424H1.93a1.889 1.889 0 00-1.2.424l9.493 9.662a3.29 3.29 0 002.361.991z"/></g></svg>